<svg xmlns="http://www.w3.org/2000/svg" viewbox="0 0 840 275" xml:space="preserve"><path style="fill:currentColor" d="M551.223 103.183c-35.066 0-52.983 27.6-52.983 69.176 0 39.302 19.375 68.802 52.983 68.802 38.006 0 52.257-34.78 52.257-68.802-.027-35.523-17.935-69.176-52.268-69.176M458.049-.003h41.652V99.78h.738c11.328-18.895 35.074-30.616 56.27-30.616 59.552 0 88.427 46.885 88.427 103.967 0 52.523-25.573 102.042-81.49 102.042-25.575 0-52.98-6.413-65.411-32.124h-.722v26.85h-39.468V.004l.004-.006M798.759 139.861c-3.292-23.814-20.096-36.674-43.118-36.674-21.568 0-51.89 11.724-51.89 71.07 0 32.511 13.88 66.916 50.062 66.916 24.112 0 40.914-16.653 44.946-44.626h41.65c-7.677 50.652-37.997 78.626-86.596 78.626-59.198 0-91.716-43.461-91.716-100.916 0-58.964 31.06-105.081 93.178-105.081 43.845 0 81.126 22.677 85.134 70.685h-41.65"/><path style="fill:currentColor" d="M312.421 269.31H0L145.895-.002H458.32L312.421 269.311"/></svg>
