<svg xmlns="http://www.w3.org/2000/svg" width="188.13" height="139" viewBox="0 0 188 139"><g><path fill="#00000075" d="M84.4 0h103.73v139H84.4z"/><path d="M37.8 89.8H25.34l-5.04 21.56H5.32l5.04-21.56H0l3.08-13.58h10.5l3.5-14.84H7l3.08-13.58H20.3l4.9-20.16h14.84L35.28 47.8h12.46l4.9-20.16h14.84L62.72 47.8H72.8l-3.5 13.58h-9.8L56 76.22h9.66L62.3 89.8h-9.52l-5.04 21.56H32.76zm-9.24-13.58h12.46l3.5-14.84H32.06z" fill="currentColor" fill-rule="nonzero"/><path d="M165.105 85.572c0 17.92-15.12 22.736-31.92 22.736h-25.76V30.692h24.64c15.904 0 29.68 4.704 29.68 19.824 0 9.296-6.608 14.784-14.224 16.688 8.288 1.344 17.584 5.936 17.584 18.368zm-21.84-33.152c0-6.16-3.696-8.736-11.872-8.736h-5.6v18.032h6.272c7.84 0 11.2-2.8 11.2-9.296zm2.912 32.368c0-8.064-5.04-10.752-12.88-10.752h-7.504v20.832h6.72c7.28 0 13.664-1.568 13.664-10.08z" fill="#fff" fill-rule="nonzero"/></g></svg>
