<?xml version="1.0" encoding="utf-8"?>
<!-- Generator: Adobe Illustrator 17.0.0, SVG Export Plug-In . SVG Version: 6.00 Build 0)  -->
<!DOCTYPE svg PUBLIC "-//W3C//DTD SVG 1.1//EN" "http://www.w3.org/Graphics/SVG/1.1/DTD/svg11.dtd">
<svg version="1.1" id="Layer_1" xmlns="http://www.w3.org/2000/svg" xmlns:xlink="http://www.w3.org/1999/xlink" x="0px" y="0px"
	 width="24px" height="19.969px" viewBox="0 0 24 19.969" enable-background="new 0 0 24 19.969" xml:space="preserve">
<g>
	<path d="M0,4c0-1.333,0-2.667,0-4c8,0,16,0,24,0c0,1.333,0,2.667,0,4C16,4,8,4,0,4z"/>
	<path d="M0,8c8,0,16,0,24,0c0,1.333,0,2.667,0,4c-8,0-16,0-24,0C0,10.667,0,9.333,0,8z"/>
	<path d="M0,16c8,0,16,0,24,0c0,1.313,0,2.626,0,3.969c-8,0-16,0-24,0C0,18.626,0,17.313,0,16z"/>
</g>
</svg>
